<?xml version="1.0" encoding="UTF-8" standalone="no"?>
<svg 
    role="img" 
    xmlns="http://www.w3.org/2000/svg" 
    width="1000mm"
    height="1000mm"
    viewBox="0 0 1000 1000"
    style="max-width:1.6em; height: auto;">
    
    <path 
        id="path" 
        style="opacity:1;vector-effect:none;fill:#000000;fill-opacity:1;"
        d="M 75 0C 75 0 75 0 75 0C 33 0 0 33 0 75C 0 75 0 925 0 925C 0 967 33 1000 75 1000C 75 1000 925 1000 925 1000C 967 1000 1000 967 1000 925C 1000 925 1000 75 1000 75C 1000 33 967 0 925 0C 925 0 75 0 75 0 M 81 541C 81 541 81 541 81 541C 59 519 59 483 81 461C 81 461 461 81 461 81C 483 59 519 59 541 81C 541 81 620 160 620 160C 620 160 519 260 519 260C 496 252 469 257 451 276C 432 295 427 322 435 345C 435 345 338 442 338 442C 315 433 288 439 269 457C 243 483 243 526 269 552C 295 578 338 578 364 552C 383 532 388 503 378 479C 378 479 468 389 468 389C 468 389 468 626 468 626C 462 629 456 634 451 639C 425 665 425 707 451 733C 477 759 519 759 545 733C 571 707 571 665 545 639C 539 632 531 627 523 624C 523 624 523 385 523 385C 531 382 539 377 545 370C 565 351 570 322 560 297C 560 297 658 199 658 199C 658 199 919 459 919 459C 941 481 941 517 919 539C 919 539 539 919 539 919C 517 941 481 941 459 919C 459 919 81 541 81 541"
        transform="translate(1000,0) scale(-1,1)">
    </path>    
</svg>